<?xml version="1.0" encoding="iso-8859-1"?>
<!-- Generator: Adobe Illustrator 19.0.0, SVG Export Plug-In . SVG Version: 6.00 Build 0)  -->
<svg version="1.1" id="Layer_1" xmlns="http://www.w3.org/2000/svg" xmlns:xlink="http://www.w3.org/1999/xlink" x="0px" y="0px"
	 viewBox="0 0 511.999 511.999" style="enable-background:new 0 0 511.999 511.999;" xml:space="preserve">
<g>
	<g>
		<g>
			<path d="M310.983,257.695l20.864-40.448c1.365-2.645,1.254-5.811-0.299-8.354c-1.544-2.543-4.309-4.096-7.279-4.096h-38.417
				l-23.168-30.737c-1.621-2.133-4.147-3.396-6.818-3.396c-2.816,0.102-5.231,1.271-6.844,3.43l-22.903,30.703h-38.383
				c-2.97,0-5.726,1.545-7.279,4.079c-1.553,2.534-1.673,5.683-0.324,8.329l20.642,40.491l-20.497,36.821
				c-1.468,2.645-1.434,5.862,0.094,8.474c1.536,2.611,4.335,4.207,7.364,4.207h38.4l23.04,30.72
				c1.604,2.15,4.139,3.413,6.827,3.413c2.679,0,5.214-1.263,6.818-3.413l23.049-30.72h38.4c3.029,0,5.828-1.604,7.364-4.224
				c1.536-2.62,1.562-5.854,0.068-8.491L310.983,257.695z"/>
			<path d="M510.993,132.505c-1.485-2.773-4.378-4.506-7.526-4.506H256H8.533c-3.149,0-6.042,1.732-7.526,4.506
				c-1.485,2.782-1.314,6.144,0.427,8.764L26.726,179.2h127.113c-4.062,5.393-7.774,11.059-10.957,17.067H38.101L60.859,230.4
				h69.717c-1.126,5.555-1.758,11.281-2.142,17.067h-55.97c15.659,21.811,36.574,37.359,60.996,45.363
				C149.325,345.506,198.221,384,256,384c57.779,0,106.675-38.494,122.539-91.17c24.422-8.004,45.338-23.552,60.996-45.363h-55.97
				c-0.384-5.786-1.015-11.511-2.142-17.067h69.726l22.75-34.133H369.126c-3.191-6.008-6.903-11.674-10.965-17.067h127.121
				l25.284-37.931C512.307,138.649,512.478,135.287,510.993,132.505z M363.673,230.4h0.162c1.314,5.547,2.219,11.238,2.662,17.067
				c0.265,3.004,0.435,5.845,0.435,8.533c0,4.446-0.324,8.96-0.905,13.508c-0.051,0.384-0.128,0.768-0.179,1.152
				c-0.614,4.42-1.468,8.875-2.637,13.338c-12.45,47.633-55.731,82.935-107.213,82.935c-51.482,0-94.763-35.302-107.213-82.935
				c-1.169-4.463-2.014-8.917-2.637-13.338c-0.051-0.384-0.128-0.768-0.179-1.152c-0.58-4.548-0.905-9.062-0.905-13.508
				c0-2.688,0.171-5.53,0.435-8.533c0.444-5.828,1.348-11.52,2.662-17.067h0.162c2.867-12.143,7.791-23.706,14.473-34.133h-0.128
				c3.934-6.127,8.439-11.844,13.466-17.067h0.145c20.762-21.538,49.425-34.133,79.718-34.133s58.957,12.595,79.718,34.133h0.145
				c5.026,5.222,9.532,10.94,13.466,17.067h-0.128C355.882,206.694,360.806,218.257,363.673,230.4z"/>
		</g>
	</g>
</g>
<g>
</g>
<g>
</g>
<g>
</g>
<g>
</g>
<g>
</g>
<g>
</g>
<g>
</g>
<g>
</g>
<g>
</g>
<g>
</g>
<g>
</g>
<g>
</g>
<g>
</g>
<g>
</g>
<g>
</g>
</svg>
